# xmcd
#
# Track frame offsets:
#	150
#	18945
#	32142
#	47565
#	58950
#	81330
#	96125
#	108020
#	125225
#	134450
#	151417
#	177085
#	191267
#	202932
#
# Disc length: 3108 seconds
#
# Revision: 0
# Processed by: cddbd v1.4PL0 Copyright (c) Steve Scherf et al.
# Submitted via: dBpowerAMP V4.0
#
DISCID=b70c220e
DTITLE=Kula Shaker - K
DYEAR=1900
DGENRE=Blues
TTITLE0=Hey Dude
TTITLE1=Hush
TTITLE2=Knight On The Town
TTITLE3=Temple Of Everlasting Light
TTITLE4=Govinda
TTITLE5=Smart Dogs
TTITLE6=Magic Theatre
TTITLE7=Into The Deep
TTITLE8=Sleeping Jiva
TTITLE9=Tattva
TTITLE10=Grateful When You're Dead/Jerry Was There
TTITLE11=303
TTITLE12=Start All Over
TTITLE13=Hollow Man
EXTD=
EXTT0=
EXTT1=
EXTT2=
EXTT3=
EXTT4=
EXTT5=
EXTT6=
EXTT7=
EXTT8=
EXTT9=
EXTT10=
EXTT11=
EXTT12=
EXTT13=
PLAYORDER=
